<svg width="126" height="126" viewBox="0 0 126 126" fill="none" xmlns="http://www.w3.org/2000/svg">
<path fill-rule="evenodd" clip-rule="evenodd" d="M45.9832 26.25H80.0168C84.2429 26.2499 87.7308 26.2499 90.5721 26.482C93.5231 26.7231 96.2358 27.2406 98.7838 28.5389C102.735 30.5522 105.948 33.7648 107.961 37.7162C109.259 40.2642 109.777 42.9769 110.018 45.9279C110.25 48.7692 110.25 52.257 110.25 56.4831V80.017C110.25 84.243 110.25 87.7308 110.018 90.5721C109.777 93.5231 109.259 96.2358 107.961 98.7838C105.948 102.735 102.735 105.948 98.7838 107.961C96.2358 109.259 93.5231 109.777 90.5721 110.018C87.7308 110.25 84.2429 110.25 80.0167 110.25H45.9833C41.7572 110.25 38.2692 110.25 35.4279 110.018C32.4769 109.777 29.7642 109.259 27.2162 107.961C23.2648 105.948 20.0522 102.735 18.0389 98.7838C16.7406 96.2358 16.2231 93.5231 15.982 90.5721C15.7499 87.7308 15.7499 84.2429 15.75 80.0168V56.4832C15.7499 52.2571 15.7499 48.7692 15.982 45.9279C16.2231 42.9769 16.7406 40.2642 18.0389 37.7162C20.0522 33.7648 23.2648 30.5522 27.2162 28.5389C29.7642 27.2406 32.4769 26.7231 35.4279 26.482C38.2692 26.2499 41.7571 26.2499 45.9832 26.25ZM36.283 36.9471C33.9813 37.1352 32.8042 37.4761 31.9831 37.8944C30.0074 38.9011 28.4011 40.5074 27.3944 42.4831C26.9761 43.3042 26.6352 44.4813 26.4472 46.7829C26.2541 49.1459 26.25 52.203 26.25 56.7V79.8C26.25 84.297 26.2541 87.3541 26.4472 89.7171C26.6352 92.0187 26.9761 93.1958 27.3944 94.0169C28.4011 95.9926 30.0074 97.5989 31.9831 98.6056C32.8042 99.0239 33.9813 99.3648 36.283 99.5529C38.6459 99.7459 41.703 99.75 46.2 99.75H79.8C84.2971 99.75 87.3541 99.7459 89.7171 99.5529C92.0187 99.3648 93.1958 99.0239 94.0169 98.6056C95.9926 97.5989 97.5989 95.9926 98.6056 94.0169C99.0239 93.1958 99.3648 92.0187 99.5529 89.7171C99.7459 87.3541 99.75 84.297 99.75 79.8V56.7C99.75 52.203 99.7459 49.1459 99.5529 46.7829C99.3648 44.4813 99.0239 43.3042 98.6056 42.4831C97.5989 40.5074 95.9926 38.9011 94.0169 37.8944C93.1958 37.4761 92.0187 37.1352 89.7171 36.9471C87.3541 36.7541 84.2971 36.75 79.8 36.75H46.2C41.703 36.75 38.6459 36.7541 36.283 36.9471Z" fill="#FFFCFF"/>
<path fill-rule="evenodd" clip-rule="evenodd" d="M52.5002 12.7575L52.5 15.7503L42 15.7497L42.0005 8.38955L43.4609 6.86646C44.7341 5.53863 46.6333 3.60756 49.9532 2.16714C53.1639 0.774072 57.3044 0 63.0002 0C68.6962 0 72.8366 0.774131 76.0473 2.16724C79.3671 3.60769 81.2663 5.53876 82.5393 6.86634L84 8.38959V15.75H73.5V12.7574C73.0353 12.3948 72.5258 12.0851 71.8679 11.7996C70.3986 11.1621 67.8041 10.5 63.0002 10.5C58.1964 10.5 55.6018 11.1621 54.1325 11.7996C53.4745 12.0851 52.9649 12.3948 52.5002 12.7575Z" fill="#FFFCFF"/>
<path fill-rule="evenodd" clip-rule="evenodd" d="M63.0028 89.25C56.751 89.2534 50.3652 87.6489 44.1 82.95L50.4 74.55C54.6348 77.7261 58.7399 78.7523 62.9972 78.75C67.2543 78.7477 71.3687 77.7235 75.6 74.55L81.9 82.95C75.6313 87.6515 69.2366 89.2466 63.0028 89.25Z" fill="#FFFCFF"/>
<path d="M36.75 60.375C36.75 56.0258 40.2758 52.5 44.625 52.5C48.9742 52.5 52.5 56.0258 52.5 60.375C52.5 64.7242 48.9742 68.25 44.625 68.25C40.2758 68.25 36.75 64.7242 36.75 60.375Z" fill="#FFFCFF"/>
<path d="M73.5 60.375C73.5 56.0258 77.0258 52.5 81.375 52.5C85.7243 52.5 89.25 56.0258 89.25 60.375C89.25 64.7242 85.7243 68.25 81.375 68.25C77.0258 68.25 73.5 64.7242 73.5 60.375Z" fill="#FFFCFF"/>
</svg>
